<svg xmlns="http://www.w3.org/2000/svg" viewBox="0 0 760 430">
<defs>
 <linearGradient id="bg" x1="0" y1="0" x2="1" y2="1"><stop stop-color="#0a1821"/><stop offset=".55" stop-color="#15252c"/><stop offset="1" stop-color="#050b10"/></linearGradient>
 <radialGradient id="glow"><stop stop-color="#d6a954" stop-opacity=".38"/><stop offset="1" stop-color="#d6a954" stop-opacity="0"/></radialGradient>
 <linearGradient id="stone" x1="0" y1="0" x2="1" y2="1"><stop stop-color="#d0c3a8"/><stop offset=".45" stop-color="#8d8578"/><stop offset="1" stop-color="#45464a"/></linearGradient>
 <linearGradient id="gold" x1="0" y1="0" x2="0" y2="1"><stop stop-color="#f0cb75"/><stop offset=".45" stop-color="#b98435"/><stop offset="1" stop-color="#5d3d1e"/></linearGradient>
 <linearGradient id="book" x1="0" y1="0" x2="1" y2="0"><stop stop-color="#17110e"/><stop offset=".5" stop-color="#49301d"/><stop offset="1" stop-color="#17100d"/></linearGradient>
 <filter id="shadow"><feGaussianBlur stdDeviation="10"/></filter>
</defs>
<rect width="760" height="430" fill="url(#bg)"/>
<ellipse cx="430" cy="100" rx="250" ry="220" fill="url(#glow)"/>
<g opacity=".18" stroke="#8cb0bd" fill="none"><path d="M56 0v430M121 0v430M187 0v430"/><path d="M0 73h246M0 145h246"/></g>
<path d="M220 0h38v430h-38z" fill="#111115"/><path d="M235 0h10v430h-10z" fill="#624729" opacity=".55"/>
<g transform="translate(210 245)">
 <rect x="0" y="112" width="400" height="28" rx="4" fill="#100c0b"/><rect x="28" y="77" width="365" height="39" rx="6" fill="url(#book)" stroke="#7f5b2f"/><rect x="8" y="38" width="350" height="41" rx="6" fill="url(#book)" stroke="#634522"/><rect x="44" y="0" width="326" height="40" rx="6" fill="url(#book)" stroke="#75542b"/>
 <g fill="#c89c54" font-family="Georgia,serif" font-size="12" letter-spacing="3"><text x="112" y="26">HISTORY</text><text x="120" y="65">POWER</text><text x="135" y="103">LEGACY</text></g>
 <g stroke="#b38645" opacity=".7"><path d="M62 6v28M348 6v28M33 44v28M335 44v28M55 83v27M374 83v27"/></g>
</g>
<g transform="translate(330 88)">
 <ellipse cx="64" cy="125" rx="58" ry="22" fill="#05080b" opacity=".6" filter="url(#shadow)"/>
 <path d="M30 103c5-25 9-49 24-62 14-13 37-14 50 0 12 13 15 36 10 60-4 18-13 31-26 40l-1 20 36 29 16 80H2l17-80 36-28 1-21c-17-9-29-20-26-38z" fill="url(#stone)" stroke="#c5b999" stroke-opacity=".35"/>
 <path d="M51 56c8-18 35-22 49-7 8 9 11 22 9 36-13-11-34-14-54-5-7 3-14 7-21 10 0-14 7-25 17-34z" fill="#4d4a44"/>
 <path d="M102 87c4 11 1 26-6 34-8 9-15 16-25 18-9-2-17-9-22-19 13 5 25 2 34-7 7-7 12-15 19-26z" fill="#777064" opacity=".75"/>
 <path d="M66 98c8-3 15-3 22 0M73 112c5 2 10 2 15 0" stroke="#2c2d2d" fill="none" stroke-width="2"/>
 <path d="M25 194c31 18 79 17 108-1l9 77H9z" fill="#5b5952"/><path d="M42 186l26 24 28-24 11 84H31z" fill="#aaa08d" opacity=".55"/>
</g>
<g transform="translate(275 138)">
 <ellipse cx="27" cy="105" rx="50" ry="9" fill="#05080b" opacity=".7"/>
 <path d="M-4 78L4 28l14 20 10-43 15 43 17-21 7 51z" fill="url(#gold)" stroke="#e0b85f" stroke-width="2"/>
 <path d="M-10 79h82v17c-25 12-57 12-82 0z" fill="url(#gold)" stroke="#d5a750"/>
 <circle cx="5" cy="31" r="4" fill="#d8b45f"/><circle cx="28" cy="7" r="5" fill="#e4c36f"/><circle cx="60" cy="29" r="4" fill="#d8b45f"/>
 <path d="M1 88h60" stroke="#f1cf7f" opacity=".8"/>
</g>
<g opacity=".85" fill="#c9baa0" font-family="Georgia,serif" font-size="13" letter-spacing="4"><text x="622" y="92">POWER</text><text x="622" y="118">CONFLICT</text><text x="622" y="144">RELIGION</text><text x="622" y="170">LEGACY</text></g>
<path d="M622 194h54" stroke="#c79b4e"/><g opacity=".72" fill="#c8c0b1" font-family="Georgia,serif" font-size="12" letter-spacing="4"><text x="622" y="226">HISTORY</text><text x="622" y="248">SHAPES</text><text x="622" y="270">THINKING</text></g>
<rect width="760" height="430" fill="none" stroke="#d1a85e" stroke-opacity=".2"/>
</svg>